<svg width="50" height="50" viewBox="0 0 50 50" fill="none" xmlns="http://www.w3.org/2000/svg">
<circle cx="25" cy="25" r="25" fill="#F5F2F2"/>
<mask id="mask0_204_2189" style="mask-type:alpha" maskUnits="userSpaceOnUse" x="0" y="0" width="50" height="50">
<circle cx="25" cy="25" r="25" fill="white"/>
</mask>
<g mask="url(#mask0_204_2189)">
<path d="M8.45537 44.3031C7.21071 46.2068 5.3135 50.4504 4.07432 54.485C3.2618 57.1304 2.70301 59.7126 2.46379 62.1629C2.17152 65.1565 2.35872 67.9021 3.14002 70.3502C3.83968 72.5424 6.18402 73.7524 8.37627 73.0528C10.5685 72.3531 11.7785 70.0088 11.0789 67.8165C10.281 65.3166 10.6613 61.4219 12.0404 56.9317C12.6018 55.104 13.2989 53.2745 14.0422 51.612C14.6116 50.3384 15.1683 49.264 15.4301 48.8635C16.6894 46.9375 16.149 44.3553 14.2229 43.096C12.2969 41.8366 9.71469 42.3771 8.45537 44.3031Z" fill="#F5D0C3"/>
<path d="M33.9554 48.6135C34.132 48.8836 34.8933 49.983 35.0311 50.1864C35.5042 50.8852 35.9032 51.5145 36.2789 52.1694C38.3123 55.7152 39.0411 58.9822 38.0567 62.0665C37.357 64.2588 38.567 66.6031 40.7593 67.3028C42.9515 68.0024 45.2959 66.7924 45.9955 64.6002C46.9945 61.4702 47.0587 58.2821 46.3513 55.1107C45.8017 52.6469 44.8239 50.3186 43.5078 48.0237C43.0177 47.1691 42.5121 46.3719 41.9316 45.5144C41.7389 45.2299 41.0343 44.2124 40.9302 44.0531C39.6708 42.1271 37.0886 41.5866 35.1626 42.846C33.2365 44.1053 32.6961 46.6875 33.9554 48.6135Z" fill="#F5D0C3"/>
<path d="M15.9844 40.4167V43.0834L14.8594 47.5L14.526 52.5L11.2344 56.125L8.85938 44.2084L9.48438 40.7917L11.2344 39.4167L12.651 40.4167L13.8177 39.75L15.9844 40.4167Z" fill="#39AC4B"/>
<path d="M33.1926 40.6667V43.3334L34.3176 47.75L34.651 52.75L37.9426 56.375L40.3176 44.4584L39.6926 41.0417L37.9426 39.6667L36.526 40.6667L35.3593 40L33.1926 40.6667Z" fill="#39AC4B"/>
<path d="M12.5115 43.7405C12.9371 41.2447 15.0901 39.4274 17.6218 39.4048L25.4821 39.3347L32.8624 39.9612C35.2145 40.1609 37.142 41.9024 37.5234 44.232C38.3605 49.3435 39.6724 58.3581 39.6724 64.6515C39.6724 73.8935 41.4961 74.7774 38.6724 75.9884C35.8485 77.1993 13.2569 77.0289 10.1723 75.1515C7.08787 73.2741 9.0057 71.3182 9.0057 67.4848C9.0057 64.6708 11.2944 50.8772 12.5115 43.7405Z" fill="#44DD5C"/>
<path d="M24.4845 48C27.2229 48 29.4428 45.6309 29.4428 42.7084C29.4428 39.7858 27.2229 37.4167 24.4845 37.4167C21.746 37.4167 19.5261 39.7858 19.5261 42.7084C19.5261 45.6309 21.746 48 24.4845 48Z" fill="#39AC4B"/>
<rect x="21.3628" y="36.7513" width="6.40473" height="9.60709" rx="3.20236" fill="#EBBAAA"/>
<path d="M12.2063 29.9908C14.8789 29.9908 17.0454 27.9357 17.0454 25.4007C17.0454 22.8657 14.8789 20.8107 12.2063 20.8107C9.53374 20.8107 7.36719 22.8657 7.36719 25.4007C7.36719 27.9357 9.53374 29.9908 12.2063 29.9908Z" fill="#EBBAAA"/>
<path d="M37.3731 30.3466C40.0456 30.3466 42.2122 28.2916 42.2122 25.7566C42.2122 23.2215 40.0456 21.1665 37.3731 21.1665C34.7005 21.1665 32.5339 23.2215 32.5339 25.7566C32.5339 28.2916 34.7005 30.3466 37.3731 30.3466Z" fill="#EBBAAA"/>
<path d="M10.4844 16.0416C10.7045 12.2018 13.5209 9.00988 17.3035 8.31337L22.6235 7.33375C24.5677 6.97575 26.563 6.99964 28.4981 7.40408L38.526 9.49995L39.776 22.0416L40.0396 25.9754C40.6227 34.6763 33.7222 42.0547 25.0017 42.0547C16.3671 42.0547 9.4977 34.8148 9.95089 26.192L10.4844 16.0416Z" fill="#F4D4CA"/>
<path d="M19.9228 33.8434C21.9728 35.2948 26.6922 35.2656 29.5228 33.8959C29.8335 33.7456 29.9635 33.3718 29.8132 33.0611C29.6628 32.7504 29.2891 32.6204 28.9783 32.7707C26.5261 33.9573 22.284 33.9835 20.6451 32.8232C20.3634 32.6238 19.9733 32.6905 19.7739 32.9722C19.5744 33.2539 19.6411 33.644 19.9228 33.8434Z" fill="#C99584"/>
<path d="M16.1268 20.3311L20.9273 20.6478C21.4784 20.6841 21.9546 20.2669 21.991 19.7158C22.0273 19.1647 21.6101 18.6885 21.059 18.6521L16.2585 18.3355C15.7074 18.2991 15.2312 18.7164 15.1948 19.2675C15.1585 19.8186 15.5758 20.2948 16.1268 20.3311Z" fill="#3F824A"/>
<path d="M28.4576 20.6812L33.1833 20.3306C33.7341 20.2897 34.1475 19.8101 34.1066 19.2593C34.0657 18.7085 33.5861 18.2952 33.0353 18.336L28.3096 18.6867C27.7588 18.7276 27.3455 19.2072 27.3863 19.758C27.4272 20.3087 27.9068 20.7221 28.4576 20.6812Z" fill="#3F824A"/>
<path d="M30.7006 10.4166C36.3673 12.1666 37.2554 12.4583 37.7006 14.6666C38.4236 18.2533 40.293 17.2486 40.4923 13.2916C38.793 1.74866 29.2839 0.749958 27.2006 1.91664C24.7006 3.31666 23.9409 8.32911 30.7006 10.4166Z" fill="#4BAA71"/>
<path d="M40.2809 15.1667C40.2809 14.242 39.1485 13.7953 38.5172 14.471L38.2756 14.7296C38.0195 15.0037 37.912 15.3851 37.9871 15.7527L39.3475 22.4042C39.3787 22.557 39.513 22.6667 39.669 22.6667C39.8452 22.6667 39.99 22.5275 39.9969 22.3514L40.2809 15.1667Z" fill="#4BAA71"/>
<path d="M24.8594 10.8333C17.7846 10.8333 12.7422 12.625 11.3255 14.2916C10.6025 17.8782 9.52604 16.5833 9.35938 12.8763C11.1094 2.66665 20.4482 1.33331 24.8594 1.33331C28.7839 1.74998 31.9341 10.8333 24.8594 10.8333Z" fill="#3F824A"/>
<path d="M19.6355 6.13018C20.53 7.43755 21.8471 8.19419 21.0411 12.3968L25.7749 9.39727C24.1226 7.9058 18.7409 4.8228 19.6355 6.13018Z" fill="#3F824A"/>
<path d="M15.9453 7.25C15.7175 10.179 15.7007 13.5199 15.7007 13.5199L20.2862 10.4078C20.2862 10.4078 17.9022 9.81292 15.9453 7.25Z" fill="#3F824A"/>
<path d="M13.3618 8.18976C13.134 11.1188 13.1172 14.4597 13.1172 14.4597L16.2839 11.7731C16.2839 11.7731 15.3187 10.7526 13.3618 8.18976Z" fill="#3F824A"/>
<path d="M19.7785 6.5C19.5508 9.42903 19.5339 12.7699 19.5339 12.7699L24.1194 9.65785C24.1194 9.65785 21.7354 9.06289 19.7785 6.5Z" fill="#3F824A"/>
<path d="M9.39774 13.5175C9.37686 13.0079 9.78437 12.5833 10.2944 12.5833C10.8235 12.5833 11.2377 13.0386 11.1879 13.5654L10.3426 22.4876C10.3286 22.6363 10.2036 22.75 10.0542 22.75C9.89882 22.75 9.7711 22.6274 9.76473 22.4721L9.39774 13.5175Z" fill="#3F824A"/>
<path d="M22.6055 24.0415L26.4388 24.1248L26.4623 23.0418L22.629 22.9584L22.6055 24.0415Z" fill="#101013"/>
<path fill-rule="evenodd" clip-rule="evenodd" d="M12.841 21.6371C12.1069 21.7166 11.5711 22.3637 11.6198 23.1094L11.8864 27.1877C11.9183 27.6739 12.1935 28.0845 12.6147 28.2562C13.9546 28.8024 15.663 29.1666 17.7005 29.1666C19.6523 29.1666 21.1702 28.9357 22.285 28.5806C22.6984 28.4489 22.9883 28.0776 23.0556 27.6113L23.6215 23.6874C23.7176 23.0209 23.3334 22.3944 22.7065 22.2036C20.9788 21.6778 19.2293 21.3333 17.7005 21.3333C16.2401 21.3333 14.549 21.4518 12.841 21.6371ZM21.9508 27.5501C21.9512 27.55 21.952 27.5498 21.9531 27.5494L21.9543 27.549M21.9518 27.5476C21.9503 27.5496 21.95 27.5502 21.9508 27.5501C20.9438 27.87 19.5386 28.0833 17.7005 28.0833C15.8098 28.0833 14.2388 27.7484 13.0236 27.253C13.0172 27.2503 13.0091 27.2437 12.9999 27.2299C12.9832 27.205 12.9708 27.1674 12.9675 27.117L12.7008 23.0388C12.6897 22.8688 12.804 22.7307 12.9578 22.7141C14.6304 22.5326 16.2862 22.4166 17.7005 22.4166C19.1013 22.4166 20.7568 22.7427 22.3911 23.24C22.4992 23.2729 22.5701 23.3885 22.5493 23.5327L21.9833 27.4567C21.9769 27.5015 21.9647 27.5311 21.9518 27.5476Z" fill="#101013"/>
<path fill-rule="evenodd" clip-rule="evenodd" d="M31.2839 21.3333C32.7442 21.3333 34.4355 21.4518 36.1431 21.637C36.8774 21.7166 37.4133 22.3637 37.3645 23.1094L37.0979 27.1878C37.0661 27.6739 36.7908 28.0845 36.3697 28.2561C35.0298 28.8024 33.3212 29.1666 31.2839 29.1666C29.332 29.1666 27.8142 28.9357 26.6992 28.5806C26.2858 28.4489 25.996 28.0776 25.9287 27.6113L25.3628 23.6874C25.2667 23.0208 25.6508 22.3944 26.2778 22.2036C28.0055 21.6778 29.755 21.3333 31.2839 21.3333ZM27.0335 27.5501C27.0331 27.5501 27.0325 27.5499 27.0316 27.5496L27.0308 27.5492C27.0317 27.5495 27.0326 27.5498 27.0335 27.5501ZM27.0326 27.5477C27.0341 27.5496 27.0344 27.5502 27.0335 27.5501C28.0407 27.87 29.4458 28.0833 31.2839 28.0833C33.1745 28.0833 34.7455 27.7484 35.9607 27.253C35.9671 27.2504 35.9752 27.2437 35.9845 27.2299C36.0012 27.2049 36.0136 27.1674 36.0169 27.1171L36.2835 23.0388C36.2946 22.8688 36.1803 22.7308 36.0264 22.7141C34.3541 22.5327 32.6981 22.4166 31.2839 22.4166C29.8831 22.4166 28.2276 22.7427 26.5932 23.24C26.4851 23.2729 26.4143 23.3885 26.4351 23.5327L27.001 27.4566C27.0075 27.5015 27.0197 27.5311 27.0326 27.5477Z" fill="#101013"/>
<path d="M23.6789 25.1943C23.6587 25.2366 23.5474 25.4648 23.5132 25.5361C23.4333 25.7023 23.3647 25.8506 23.2986 26.0024C23.0994 26.46 22.9512 26.8852 22.8614 27.3C22.4689 29.1148 23.3441 30.375 25.6173 30.375V28.9583C24.8645 28.9583 24.4675 28.8023 24.3059 28.5698C24.1747 28.3809 24.1477 28.0542 24.2461 27.5995C24.3132 27.289 24.4324 26.947 24.5975 26.5681C24.6557 26.4342 24.7173 26.3012 24.7901 26.1496C24.8217 26.0837 24.9338 25.854 24.9569 25.8056L23.6789 25.1943Z" fill="#EBBAAA"/>
<path d="M17.0339 26C18.0236 26 18.517 26.039 19.0799 26.2078C19.6089 26.3665 20.1664 26.0663 20.3251 25.5373C20.4838 25.0084 20.1836 24.4509 19.6546 24.2922C18.8485 24.0503 18.211 24 17.0339 24C16.4817 24 16.0339 24.4477 16.0339 25C16.0339 25.5523 16.4817 26 17.0339 26Z" fill="black"/>
<path d="M32.1095 23.8333C30.9324 23.8333 30.2949 23.8836 29.4888 24.1255C28.9598 24.2842 28.6596 24.8417 28.8183 25.3707C28.977 25.8997 29.5345 26.1998 30.0635 26.0411C30.6264 25.8723 31.1198 25.8333 32.1095 25.8333C32.6618 25.8333 33.1095 25.3856 33.1095 24.8333C33.1095 24.281 32.6618 23.8333 32.1095 23.8333Z" fill="black"/>
</g>
</svg>
