<svg width="219" height="202" viewBox="0 0 219 202" fill="none" xmlns="http://www.w3.org/2000/svg">
<path d="M196.188 101C196.188 142.836 159.419 176.75 114.062 176.75C68.7061 176.75 31.9375 142.836 31.9375 101C31.9375 59.1644 68.7061 25.25 114.062 25.25C159.419 25.25 196.188 59.1644 196.188 101Z" fill="#DE3E48"/>
<path d="M143.537 124.239C145.912 124.969 148.43 123.636 149.161 121.26C149.891 118.884 148.557 116.367 146.182 115.636L143.537 124.239ZM114.062 110.469H109.562C109.562 112.445 110.851 114.189 112.74 114.77L114.062 110.469ZM118.562 70.8756C118.562 68.3904 116.548 66.3756 114.062 66.3756C111.577 66.3756 109.562 68.3904 109.562 70.8756H118.562ZM146.182 115.636L115.385 106.167L112.74 114.77L143.537 124.239L146.182 115.636ZM118.562 110.469V70.8756H109.562V110.469H118.562ZM191.688 101C191.688 140.015 157.283 172.25 114.062 172.25V181.25C161.555 181.25 200.688 145.656 200.688 101H191.688ZM114.062 172.25C70.8421 172.25 36.4375 140.015 36.4375 101H27.4375C27.4375 145.656 66.5701 181.25 114.062 181.25V172.25ZM36.4375 101C36.4375 61.9852 70.8421 29.75 114.062 29.75V20.75C66.5701 20.75 27.4375 56.3437 27.4375 101H36.4375ZM114.062 29.75C157.283 29.75 191.688 61.9852 191.688 101H200.688C200.688 56.3437 161.555 20.75 114.062 20.75V29.75Z" fill="black"/>
</svg>
