<svg width="191" height="226" viewBox="0 0 191 226" fill="none" xmlns="http://www.w3.org/2000/svg">
<path d="M100.651 82.5584C100.651 98.0776 90.0182 110.658 76.9024 110.658C63.7866 110.658 53.1542 98.0776 53.1542 82.5584C53.1542 67.0392 63.7866 54.4584 76.9024 54.4584C90.0182 54.4584 100.651 67.0392 100.651 82.5584Z" fill="#DE3E48"/>
<path d="M19.1001 171.542C27.8435 154.285 47.0061 142.475 76.9024 142.475C106.799 142.475 125.961 154.285 134.705 171.542M140.236 129.39C156.068 138.757 163.984 148.123 171.9 166.857M123.77 57.7956C131.219 62.5374 136.284 71.8483 136.284 82.5587C136.284 92.9596 131.508 102.041 124.409 106.899M100.651 82.5584C100.651 98.0776 90.0182 110.658 76.9024 110.658C63.7866 110.658 53.1542 98.0776 53.1542 82.5584C53.1542 67.0392 63.7866 54.4584 76.9024 54.4584C90.0182 54.4584 100.651 67.0392 100.651 82.5584Z" stroke="black" stroke-width="8" stroke-linecap="round"/>
</svg>
